<?xml version="1.0" encoding="utf-8"?>
<!-- Generator: Adobe Illustrator 26.0.2, SVG Export Plug-In . SVG Version: 6.00 Build 0)  -->
<svg version="1.1" id="Layer_1" xmlns="http://www.w3.org/2000/svg" xmlns:xlink="http://www.w3.org/1999/xlink" x="0px" y="0px"
	 viewBox="0 0 200 200" style="enable-background:new 0 0 200 200;" xml:space="preserve">
<style type="text/css">
	.st0{fill-rule:evenodd;clip-rule:evenodd;fill:#FFFFFF;}
	.st1{fill:#FFFFFF;}
</style>
<path class="st0" d="M131.32,42.93c1.67,0,3.02,1.35,3.02,3.01c0,1.66-1.35,3.01-3.02,3.01s-3.02-1.35-3.02-3.01
	C128.3,44.28,129.65,42.93,131.32,42.93 M68.68,42.93c-1.67,0-3.02,1.35-3.02,3.01c0,1.66,1.35,3.01,3.02,3.01
	c1.67,0,3.02-1.35,3.02-3.01C71.7,44.28,70.35,42.93,68.68,42.93z M97.06,101.49c-3.43-1.6-6.82-3.53-10.19-5.9
	c-8.4-5.93-15.21-17.09-13.66-26.02c1.87-10.72,15.7-14.45,24.68-9.71c-1.2-9.14-6.7-17.16-14.8-21.57
	c-8.1-4.41-17.82-4.69-26.16-0.75C34.51,49.57,26.58,78.65,43.49,98.67c4.19,4.96,9.63,8.96,15.75,12.12l0,0l14.81-3.24
	c8.07-1.77,15.63-3.4,22.87-6.12L97.06,101.49z M39.17,123.12l3.19-6.2l20.36-4.45l0.08-0.02l0.81-0.18l0.83-0.18l0.84-0.18
	l0.86-0.19l0.87-0.19l0.89-0.19l0.9-0.2l0.92-0.2l0.94-0.2l0.95-0.21l0.97-0.21l0.98-0.21l1-0.22l0.42-0.09l0.23-0.05l0.19-0.04
	l0.42-0.09l0.05-0.01l0.38-0.08l0.28-0.06l0.14-0.03l0.42-0.09l0.09-0.02l0.33-0.07l0.32-0.07l0.1-0.02l0.42-0.09l0.13-0.03
	l0.28-0.06l0.36-0.08l0.05-0.01l0.41-0.09l0.17-0.04l0.24-0.05l0.4-0.09l0.01,0l0.63-0.14l0.19-0.04l0.41-0.09l0.03-0.01l0.37-0.09
	l0.26-0.06l0.15-0.03l0.41-0.09l0.08-0.02l0.33-0.08l0.3-0.07l0.1-0.02l0.4-0.1l0.12-0.03l0.28-0.07l0.34-0.08l0.06-0.02l0,0
	l0.56-0.14l0.24-0.06l0.38-0.1l0.02,0l0.4-0.1l0.2-0.05l0.19-0.05l0.4-0.1l0.03-0.01l0.37-0.1l0.24-0.06l0.15-0.04l0.39-0.11
	l0.07-0.02l0.33-0.09l0.28-0.08l0.11-0.03l0.39-0.11l0.11-0.03l0.05-0.01l0.55-0.16l0.01,0l0.07-0.02c0.38-0.11,0.76-0.22,1.14-0.33
	l0.01,0l0.03-0.01l0.39-0.12l0.19-0.06l0.07-0.02l0.52-0.16l0.02,0l0.5-0.16l0.11-0.03l0.16-0.05l0.39-0.12l0.06-0.02
	c0.39-0.13,0.78-0.26,1.17-0.39l0.08-0.03c0.37-0.13,0.75-0.26,1.12-0.39l0.02-0.01l0.58-0.21l0.03-0.01
	c0.38-0.14,0.76-0.28,1.14-0.43l0.01,0l0.59-0.23l0,0l0.54-0.21l0.05-0.02l0.49-0.2l0.15-0.06c4.47-1.84,8.85-4.15,13.19-7.22
	c8.4-5.93,15.21-17.09,13.66-26.02c-1.87-10.72-15.7-14.45-24.68-9.71c1.2-9.14,6.7-17.16,14.8-21.57
	c8.1-4.41,17.82-4.69,26.16-0.75c22.43,12.03,30.36,41.11,13.45,61.13c-4.97,5.89-11.69,10.41-19.23,13.79h0l-0.12,0.05l0,0
	l-0.12,0.05l-0.36,0.16l0,0l-0.36,0.16l-0.11,0.05l-0.01,0.01l-0.47,0.2l-0.02,0.01l-0.12,0.05l-0.24,0.1l-0.1,0.04l-0.03,0.01
	l-0.12,0.05l-0.12,0.05l-0.12,0.05l-0.09,0.04l-0.49,0.2l-0.04,0.02c-0.29,0.11-0.58,0.23-0.87,0.34l-0.07,0.03
	c-0.31,0.12-0.62,0.23-0.93,0.35l-0.05,0.02l-0.07,0.03l-0.38,0.14l-0.05,0.02l-0.08,0.03l-0.38,0.14l-0.04,0.01l-0.09,0.03
	l-0.38,0.13l-0.03,0.01c-0.49,0.17-0.99,0.34-1.49,0.5l0.11,0.11l0.1,0.11l0.1,0.11l0.04,0.05l0.06,0.06l0.1,0.11l0.1,0.11l0.09,0.1
	l0.01,0.02l0.1,0.11l0.1,0.11l0.1,0.11l0.03,0.03l0.07,0.08l0.1,0.11l0.1,0.11l0.07,0.08l0.03,0.03l0.1,0.11l0.1,0.11l0.1,0.11
	l0.01,0.02l0.09,0.09l0.1,0.11l0.1,0.11l0.06,0.06l0.04,0.05l0.1,0.11l0.1,0.11l0.1,0.11l0.3,0.33l0.04,0.05l0.06,0.06l0.1,0.11
	l0.1,0.11l0.08,0.09l0.01,0.02l0.1,0.11l0.1,0.11l0.1,0.11l0.03,0.03l0.07,0.08l0.1,0.11l0.1,0.11l0.07,0.08l0.03,0.03l0.1,0.11
	l0.1,0.11l0.09,0.11l0.01,0.02l0.08,0.09l0.09,0.11l0.09,0.11l0.05,0.06l0.04,0.05l0.09,0.11l0.09,0.11l0.09,0.11l0,0l0.09,0.11
	l0.09,0.11l0.09,0.11l0.04,0.05l0.05,0.06l0.09,0.11l0.09,0.11l0.08,0.09l0.01,0.02l0.09,0.11l0.09,0.11l0.09,0.11l0.03,0.03
	l0.06,0.08l0.09,0.11l0.09,0.11l0.07,0.08l0.02,0.03l0.09,0.1l0.09,0.1c4.63,5.42,8.27,10.36,10.92,14.83h-6.7
	c-5.42-5.68-10.91-10.73-16.49-15.13c-1.44-0.04-2.87-0.09-4.3-0.14c3.59,4.94,6.39,10.03,8.38,15.27h-5.39
	c-5.78-6.92-13.09-12.37-21.92-16.36l-0.05,0l-0.04,0c-8.83,3.99-16.14,9.44-21.92,16.36h-5.39c1.99-5.24,4.79-10.33,8.38-15.27
	c-1.43,0.05-2.87,0.1-4.3,0.14c-5.57,4.4-11.07,9.44-16.49,15.13h-6.7c2.65-4.47,6.29-9.41,10.92-14.83
	C55.58,122.64,46.94,122.78,39.17,123.12z M160.84,123.12l-3.19-6.2l-16.56-3.62c-2.46,1.23-4.99,2.32-7.55,3.27
	c1.76,1.93,3.5,3.92,5.2,5.95C146.48,122.68,153.99,122.83,160.84,123.12z"/>
<path class="st1" d="M173.45,171.02v-16.27h5.77c5.29,0,8.72,3.22,8.72,8.13c0,4.91-3.42,8.13-8.72,8.13H173.45z M169.05,174.75
	h10.38c7.7,0,12.95-4.74,12.95-11.86c0-7.12-5.26-11.86-12.95-11.86h-10.38V174.75z M160.75,159.47c0,2.98-2,4.74-5.87,4.74h-5.16
	v-9.46h5.16C158.75,154.75,160.75,156.48,160.75,159.47z M165.6,174.75l-5.46-7.79c3.22-1.25,5.05-3.9,5.05-7.49
	c0-5.25-3.87-8.44-10.11-8.44h-9.77v23.72h4.41v-6.91h5.36c0.31,0,0.61,0,0.92-0.03l4.85,6.95H165.6z M141.81,154.72v-3.69h-13.12
	v3.69h4.37v16.34h-4.37v3.69h13.12v-3.69h-4.38v-16.34H141.81z M117.28,171.29h-7.12v-6.85h7.12c3.32,0,5.12,1.05,5.12,3.42
	C122.4,170.24,120.6,171.29,117.28,171.29z M116.39,154.48c3.05,0,4.78,1.08,4.78,3.29c0,2.17-1.73,3.25-4.78,3.25h-6.24v-6.54
	H116.39z M122.57,162.41c1.83-0.98,3.05-2.78,3.05-5.22c0-3.76-3.05-6.17-8.75-6.17h-11.12v23.72h11.8c6.1,0,9.29-2.37,9.29-6.44
	C126.84,165.23,125.11,163.23,122.57,162.41z M92.33,169.09c-1.93,1.46-4.92,2.3-7.9,2.3c-4.44,0-6.41-1.42-6.41-3.52
	c0-2.24,1.93-3.29,5.05-3.29h6.51v-3.66h-6.27c-2.82,0-4.27-1.08-4.27-3.12c0-2,1.87-3.42,5.87-3.42c2.31,0,4.54,0.44,6.68,1.56
	l1.26-3.49c-2.1-1.08-5.09-1.76-8.11-1.76c-6.88,0-10.14,3.19-10.14,6.85c0,2.24,1.12,4.1,2.98,5.08c-2.34,0.88-4,2.85-4,5.56
	c0,4,3.63,6.91,10.65,6.91c3.87,0,7.39-0.95,9.53-2.61L92.33,169.09z M69.63,151.03l-7.97,18.3l-7.9-18.3h-4.78l10.38,23.72h4.34
	l10.34-23.72H69.63z M37.52,171.23c-4.78,0-8.34-3.49-8.34-8.34c0-4.85,3.56-8.34,8.34-8.34c4.78,0,8.34,3.49,8.34,8.34
	C45.86,167.73,42.3,171.23,37.52,171.23z M37.52,175.09c7.36,0,12.79-5.15,12.79-12.2c0-7.05-5.43-12.2-12.79-12.2
	c-7.36,0-12.79,5.19-12.79,12.2C24.73,169.9,30.16,175.09,37.52,175.09z M7.62,174.75h16.82v-3.73H12.03v-20H7.62V174.75z"/>
</svg>
